<svg viewBox="0 0 80 96" version="1.1" xmlns="http://www.w3.org/2000/svg" xmlns:xlink="http://www.w3.org/1999/xlink">
    <g stroke="none" stroke-width="1" fill="none" fill-rule="evenodd">
        <g transform="translate(-10.000000, 0.500000)" fill="#fcfef8" fill-rule="nonzero">
            <g transform="translate(10.483645, 0.000000)">
                <path d="M77.416355,62.1 L71.316355,54.5 C68.816355,51.5 67.516355,47.7 67.516355,43.8 L67.516355,35.6 C67.516355,23.2 59.416355,12.7 48.316355,9.1 L48.316355,6 C48.316355,2.7 45.616355,0 42.316355,0 L36.816355,0 C33.516355,0 30.816355,2.7 30.816355,6 L30.816355,9.1 C19.616355,12.8 11.516355,23.3 11.516355,35.7 L11.516355,43.9 C11.516355,47.8 10.216355,51.6 7.71635499,54.6 L1.51635499,62.2 C-2.08364501,66.6 1.11635499,73.5 7.01635499,73.5 L72.016355,73.5 C77.916355,73.5 81.116355,66.6 77.416355,62.1 Z"></path>
                <path d="M39.516355,95 C47.316355,95 53.616355,88.7 53.616355,80.9 L25.416355,80.9 C25.416355,88.7 31.716355,95 39.516355,95 Z"></path>
            </g>
        </g>
    </g>
</svg>
